<?xml version="1.0" encoding="UTF-8" standalone="no"?>
<svg
   xmlns:dc="http://purl.org/dc/elements/1.1/"
   xmlns:cc="http://creativecommons.org/ns#"
   xmlns:rdf="http://www.w3.org/1999/02/22-rdf-syntax-ns#"
   xmlns:svg="http://www.w3.org/2000/svg"
   xmlns="http://www.w3.org/2000/svg"
   viewBox="0 0 1606.8965 1606.8965"
   height="1606.8965"
   width="1606.8965"
   id="svg869"
   version="1.1">
  <metadata
     id="metadata875">
    <rdf:RDF>
      <cc:Work
         rdf:about="">
        <dc:format>image/svg+xml</dc:format>
        <dc:type
           rdf:resource="http://purl.org/dc/dcmitype/StillImage" />
        <dc:title></dc:title>
      </cc:Work>
    </rdf:RDF>
  </metadata>
  <defs
     id="defs873" />
  <rect
     y="0"
     x="0"
     height="1606.8965"
     width="1606.8965"
     id="rect1757"
     style="opacity:1;fill:#000000;fill-opacity:1;stroke:none;stroke-width:3.4078548;stroke-linejoin:miter;stroke-miterlimit:4;stroke-dasharray:none" />
  <path
     id="path1733"
     d="M 795.54884,225.8027 C 643.6799,227.8786 498.73095,289.64949 392.04883,397.75778 285.3667,505.86608 225.52584,651.62271 225.4668,803.50583 c 0.0893,151.86312 59.94416,297.59047 166.62305,405.67387 106.6789,108.0835 251.60998,169.8385 403.45899,171.9141 z m 79.7676,4.75 v 1145.7266 c 139.62696,-17.4975 268.07406,-85.3329 361.25186,-190.7832 93.1779,-105.4503 144.6854,-241.27125 144.8613,-381.99027 -0.1322,-140.75 -51.6188,-276.61555 -144.8007,-382.10352 C 1143.447,315.91434 1014.9741,248.05407 875.31644,230.5527 Z m 202.77726,201.94922 a 71.347191,72.975433 0 0 1 71.3477,72.97461 71.347191,72.975433 0 0 1 -71.3477,72.97461 71.347191,72.975433 0 0 1 -71.3457,-72.97461 71.347191,72.975433 0 0 1 71.3457,-72.97461 z M 544.43555,552.3984 c 99.92827,0 195.30469,58.47512 195.30469,271.05469 H 476.08008 c 0.80274,101.99666 32.21371,144.65626 84.06836,144.65626 51.85466,0 80.91992,-47.6943 80.91992,-83.4199 h 89.19727 c 0,11.1004 -23.31175,173.52345 -185.83008,173.52345 -169.76644,0 -205.55469,-162.77425 -205.55469,-258.49614 0,-152.02487 81.56238,-247.31836 205.55469,-247.31836 z m 415.81249,70.41407 h 198.03316 v 325.20508 c 0.1399,17.9634 9.4093,26.1896 26.293,26.293 h 21.709 v 67.49805 H 960.24804 v -67.49805 h 37.0254 c 16.30446,0.1351 23.96406,-8.1185 23.98046,-23.9805 V 714.97262 c 0.2342,-13.67141 -3.7875,-24.19345 -24.57226,-24.57226 h -36.4336 z m -415.81249,8.15234 c -42.5301,0 -66.04492,45.98541 -66.04492,117.38867 h 129.63476 c 0,-71.48035 -21.05973,-117.38867 -63.58984,-117.38867 z"
     style="display:inline;opacity:1;fill:#ffffff;fill-opacity:1;stroke:none;stroke-width:3.74848771;stroke-linejoin:miter;stroke-miterlimit:4;stroke-dasharray:none" />
</svg>
